<svg width="30" height="24" viewBox="0 0 30 24" fill="none" xmlns="http://www.w3.org/2000/svg">
<path d="M7.58077 2L3.94482 6V20C3.94482 20.5304 4.20021 21.0391 4.65479 21.4142C5.10937 21.7893 5.72591 22 6.36879 22H23.3365C23.9794 22 24.5959 21.7893 25.0505 21.4142C25.5051 21.0391 25.7605 20.5304 25.7605 20V6L22.1245 2H7.58077Z" stroke="white" stroke-linecap="round" stroke-linejoin="round"/>
<path d="M3.94482 6H25.7605" stroke="white" stroke-linecap="round" stroke-linejoin="round"/>
<path d="M19.7005 10C19.7005 11.0609 19.1897 12.0783 18.2806 12.8284C17.3714 13.5786 16.1383 14 14.8526 14C13.5668 14 12.3337 13.5786 11.4246 12.8284C10.5154 12.0783 10.0046 11.0609 10.0046 10" stroke="white" stroke-linecap="round" stroke-linejoin="round"/>
</svg>
